<svg xmlns="http://www.w3.org/2000/svg" width="100%" height="auto" viewBox="0 0 1024 722" version="1.1">
	<path d="M 401.151 20.471 C 334.583 28.490, 279.656 53.365, 236.596 94.992 C 214.706 116.154, 199.445 136.888, 186.909 162.500 C 169.494 198.079, 161.889 240.480, 166.626 275.584 L 167.177 279.667 160.994 281.922 C 152.233 285.116, 134.797 293.994, 125.989 299.746 C 95.642 319.560, 71.342 351.308, 61.036 384.606 C 48.290 425.787, 51.301 469.273, 69.548 507.548 C 91.558 553.715, 136.751 588.363, 187.005 597.598 C 197.261 599.483, 222.391 600.090, 234.114 598.736 L 240.727 597.972 246.790 610.236 C 261.047 639.075, 280.088 660.853, 306.500 678.526 C 325.915 691.517, 346.806 700.133, 371 705.126 C 381.194 707.230, 385.112 707.496, 405.500 707.468 C 431.246 707.432, 439.558 706.200, 460 699.388 C 494.643 687.844, 527.555 664.150, 546.546 637.081 C 550.100 632.015, 551.924 630.209, 553 630.689 C 553.825 631.056, 559.450 633.059, 565.500 635.138 C 598.816 646.589, 638.083 644.060, 669.061 628.468 C 688.684 618.591, 710.385 599.508, 721 582.795 C 726.193 574.620, 726.668 574.162, 729.500 574.609 C 737.914 575.936, 761.650 576.630, 773.099 575.883 C 813.463 573.251, 853.327 557.360, 885.268 531.169 C 895.358 522.896, 912.365 505.114, 919.863 495 C 936.510 472.543, 949.318 444.491, 955.934 416 C 963.518 383.340, 963.333 344.791, 955.422 309.500 C 947.753 275.291, 929.866 238.260, 908.209 211.756 C 900.961 202.886, 883.995 186.107, 875 178.914 C 823.833 137.996, 761.888 122.628, 700.162 135.539 C 691.041 137.447, 669.824 144.031, 661.975 147.389 C 660.834 147.877, 659.612 146.336, 657.122 141.271 C 646.623 119.904, 627.057 96.200, 605.500 78.729 C 567.650 48.054, 521.925 28.733, 470 21.474 C 454.125 19.255, 415.873 18.697, 401.151 20.471 M 485.500 126.051 C 380.080 133.039, 290.551 209.315, 266.068 313 C 262.530 327.984, 260.933 341.047, 260.322 360 C 258.482 417.035, 276.872 472.214, 312.761 517.344 C 323.083 530.324, 343.465 550.249, 356.135 559.746 C 376.352 574.899, 401.245 588.284, 423.448 595.940 C 436.506 600.443, 455.810 605.329, 467.010 606.966 C 488.254 610.072, 520.729 609.869, 540.314 606.508 C 606.398 595.167, 665.622 556.621, 703.189 500.500 C 718.402 477.773, 732.399 445.197, 737.888 419.739 C 745.289 385.415, 745.324 347.905, 737.985 315 C 724.413 254.150, 687.459 200.713, 634.500 165.356 C 591.727 136.800, 537.830 122.583, 485.500 126.051 M 480.717 159.117 C 429.976 164.006, 378.801 189.988, 345.472 227.783 C 277.270 305.122, 274.378 417.744, 338.545 497.524 C 342.554 502.509, 350.634 511.210, 356.500 516.860 C 386.514 545.769, 420.848 563.820, 462.653 572.668 C 474.650 575.208, 477.187 575.392, 501 575.444 C 527.682 575.503, 532.764 574.994, 551.078 570.436 C 612.207 555.222, 664.630 512.474, 691.259 456.125 C 704.561 427.980, 710.942 399.283, 710.980 367.436 C 711.021 333.693, 704.445 304.859, 690.012 275.500 C 678.540 252.162, 666.074 235.054, 647.363 216.965 C 630.328 200.496, 614.997 189.830, 592.674 178.917 C 558.553 162.236, 519.684 155.362, 480.717 159.117 M 374.092 269.084 C 369.001 276.281, 364.985 282.316, 365.168 282.497 C 365.350 282.677, 376.326 291.077, 389.557 301.163 C 402.788 311.248, 422.711 326.455, 433.828 334.956 L 454.043 350.412 451.771 352.597 C 450.522 353.798, 430.825 369.732, 408 388.004 C 385.175 406.277, 366.358 421.602, 366.184 422.061 C 365.917 422.767, 379.102 440.902, 383.742 446.209 C 385.124 447.790, 385.999 447.294, 395.368 439.627 C 400.941 435.067, 426.650 414.318, 452.500 393.518 C 478.350 372.717, 500.953 354.439, 502.729 352.899 L 505.957 350.099 501.729 346.699 C 494.451 340.847, 384.009 256, 383.670 256 C 383.493 256, 379.183 261.888, 374.092 269.084 M 465.750 447.701 C 464.175 448.102, 464 449.742, 464 464.073 L 464 480 548 480 L 632 480 632 464.108 C 632 448.458, 631.966 448.208, 629.750 447.668 C 627.089 447.018, 468.304 447.050, 465.750 447.701" stroke="none" fill="black" fill-rule="evenodd"/>
</svg>